<svg xmlns="http://www.w3.org/2000/svg" width="24" height="23.999" viewBox="0 0 24 23.999">
  <path id="Subtraction_5" data-name="Subtraction 5" d="M-1424-844a11.923,11.923,0,0,1-8.486-3.514A11.921,11.921,0,0,1-1436-856a11.921,11.921,0,0,1,3.515-8.485A11.923,11.923,0,0,1-1424-868a11.921,11.921,0,0,1,8.485,3.514A11.921,11.921,0,0,1-1412-856a11.921,11.921,0,0,1-3.515,8.485A11.921,11.921,0,0,1-1424-844Zm-8-6.751h0a9.846,9.846,0,0,0,5.346,1.563,9.5,9.5,0,0,0,7.364-3.232,10.26,10.26,0,0,0,2.555-6.686c0-.132,0-.271-.013-.45a6.973,6.973,0,0,0,1.747-1.81,7.289,7.289,0,0,1-2.008.551,3.472,3.472,0,0,0,1.533-1.927,6.951,6.951,0,0,1-2.21.844,3.506,3.506,0,0,0-2.546-1.1,3.489,3.489,0,0,0-3.483,3.487,3.562,3.562,0,0,0,.081.795,9.9,9.9,0,0,1-7.184-3.646,3.491,3.491,0,0,0-.477,1.762,3.478,3.478,0,0,0,1.548,2.9,3.426,3.426,0,0,1-1.574-.429v.038a3.506,3.506,0,0,0,2.792,3.424,3.438,3.438,0,0,1-.914.115,3.04,3.04,0,0,1-.66-.059,3.514,3.514,0,0,0,3.256,2.427,7.04,7.04,0,0,1-4.321,1.487A6.463,6.463,0,0,1-1432-850.751Z" transform="translate(1436 868)" fill="#707070"/>
</svg>
