<svg xmlns="http://www.w3.org/2000/svg" width="100" height="57.697" viewBox="0 0 100 57.697"><g transform="translate(0 15.227)"><g transform="translate(20.828)"><path d="M206.849,246.294a2.762,2.762,0,1,0-2.762-2.762A2.761,2.761,0,0,0,206.849,246.294Z" transform="translate(-187.335 -238.276)" fill="#ffc900"/><path d="M184.777,245.851h-.035l-7.252.092a2.393,2.393,0,0,1,.014-4.787h3.522c.036,0,.072.006.109.006a2.762,2.762,0,0,0,0-5.524v-.005H177.5a7.917,7.917,0,0,0,0,15.834h.035l7.252-.092a2.3,2.3,0,0,1-.014,4.6h-3.641a2.762,2.762,0,1,0,0,5.524h3.641a7.825,7.825,0,1,0,0-15.65Z" transform="translate(-169.588 -235.633)" fill="#ffc900"/><path d="M173.724,277.916a2.762,2.762,0,1,0-2.762-2.762A2.761,2.761,0,0,0,173.724,277.916Z" transform="translate(-170.295 -254.543)" fill="#ffc900"/></g><path d="M319.211,252.44a2.762,2.762,0,0,0-3.8.9,7.364,7.364,0,1,1,0-7.727,2.762,2.762,0,1,0,4.7-2.9,12.888,12.888,0,1,0,0,13.533A2.762,2.762,0,0,0,319.211,252.44Z" transform="translate(-220.522 -236.124)" fill="#0087ba"/><g transform="translate(50.079 0.463)"><path d="M245.972,236.587c-.066,0-.13.005-.194.01h-6.25a2.762,2.762,0,0,0,0,5.524h6.444c.044,0,.086,0,.129-.007a7.362,7.362,0,0,1,0,14.723c-.043,0-.085-.006-.129-.006h-6.444a2.762,2.762,0,0,0,0,5.524h6.25c.064,0,.128.01.194.01a12.888,12.888,0,1,0,0-25.776Z" transform="translate(-236.767 -236.587)" fill="#00a57e"/><path d="M239.529,262.964a2.762,2.762,0,1,0-2.762-2.762A2.761,2.761,0,0,0,239.529,262.964Z" transform="translate(-236.767 -247.315)" fill="#00a57e"/></g><path d="M134.539,236.11h-5.524a2.762,2.762,0,0,0,0,5.523h2.762v12.428a2.3,2.3,0,1,1-4.6,0,2.762,2.762,0,0,0-5.524,0,7.825,7.825,0,0,0,15.65,0V238.872A2.761,2.761,0,0,0,134.539,236.11Z" transform="translate(-121.651 -235.878)" fill="#ff4680"/></g><rect width="20.058" height="3.848" rx="1.924" transform="translate(0.072)" fill="#ff4680"/><rect width="11.554" height="3.848" rx="1.924" transform="translate(8.576 6.573)" fill="#ffc900"/><circle cx="1.924" cy="1.924" r="1.924" transform="translate(96.093 46.925)" fill="#00a57e"/><circle cx="1.924" cy="1.924" r="1.924" transform="translate(76.083 53.848)" fill="#0087ba"/><rect width="20.058" height="3.848" rx="1.924" transform="translate(93.765 50.773) rotate(180)" fill="#00a57e"/></svg>