<svg xmlns="http://www.w3.org/2000/svg" width="24" height="24" viewBox="0 0 24 24">
  <path id="logo" d="M12,.5A12.154,12.154,0,0,0,0,12.8,12.28,12.28,0,0,0,8.2,24.479c.6.116.82-.265.82-.592,0-.292-.01-1.066-.015-2.092-3.338.742-4.042-1.651-4.042-1.651a3.243,3.243,0,0,0-1.335-1.8c-1.087-.763.084-.747.084-.747a2.522,2.522,0,0,1,1.838,1.268A2.523,2.523,0,0,0,9.05,19.889a2.648,2.648,0,0,1,.76-1.646c-2.665-.308-5.466-1.366-5.466-6.08a4.814,4.814,0,0,1,1.235-3.3A4.478,4.478,0,0,1,5.684,5.6s1.005-.33,3.3,1.262a11.043,11.043,0,0,1,6,0C17.264,5.275,18.269,5.6,18.269,5.6a4.6,4.6,0,0,1,.12,3.257,4.834,4.834,0,0,1,1.23,3.3c0,4.727-2.805,5.767-5.475,6.07a2.987,2.987,0,0,1,.81,2.277c0,1.647-.015,2.97-.015,3.369,0,.322.21.707.825.584A12.239,12.239,0,0,0,24,12.8,12.156,12.156,0,0,0,12,.5Z" transform="translate(0 -0.5)" fill="#707070"/>
</svg>
