<svg xmlns="http://www.w3.org/2000/svg" viewBox="0 0 720 150"><defs><style>.cls-1{fill:#ff4981;}.cls-2{fill:#bebebe;}.cls-3{fill:#ffc800;}.cls-4{fill:#0089b8;}.cls-5{fill:#b2cc39;}.cls-6{fill:#de3f37;}.cls-7{fill:#00a580;}.cls-8{fill:#f3dc1d;}.cls-9{fill:#0099b4;}</style></defs><title>jsdc工作區域 1 複本 4</title><g id="圖層_1" data-name="圖層 1"><path class="cls-1" d="M215.5,127.5v-1a49.5,49.5,0,0,0,0-99v-1a50.5,50.5,0,0,1,0,101Z"/><path class="cls-2" d="M215.5,102.5v-1a24.5,24.5,0,0,0,0-49v-1a25.5,25.5,0,0,1,0,51Z"/><path class="cls-3" d="M216,127.5H190V26.5h26Zm-25-1h24v-99H191Z"/><path class="cls-3" d="M96,127.5H65V26.5H96Zm-30-1H95v-99H66Z"/><path class="cls-1" d="M58,127.5c-21,0-38-16.82-38-37.5v-.5H65v1H21c.28,19.9,16.77,36,37,36a38.13,38.13,0,0,0,7.4-.73l.2,1A38.63,38.63,0,0,1,58,127.5Z"/><path class="cls-2" d="M65,127.36V89.5H96V90a38.11,38.11,0,0,1-30.4,37.24ZM66,90.5v35.63A37.1,37.1,0,0,0,95,90.5Z"/><path class="cls-4" d="M143.15,127.48a38,38,0,0,1-27.9-12l-.35-.37,13.29-12.28.68.73-12.55,11.6a37.33,37.33,0,0,0,51.75,1.83,35.91,35.91,0,0,0,2.22-51.29L171,65a36.9,36.9,0,0,1-2.28,52.71A38.06,38.06,0,0,1,143.15,127.48Z"/><path class="cls-5" d="M400,65.5,362.25,65V64.5a38,38,0,0,1,38-38v1a37,37,0,0,0-37,36.51L400,64.5Z"/><path class="cls-2" d="M400,102.5h-.5v-76h.5a38,38,0,0,1,0,76Zm.5-75v74a37,37,0,0,0,0-74Z"/><path class="cls-6" d="M438,127.5H362v-26h76Zm-75-1h74v-24H363Z"/><path class="cls-7" d="M158.86,50.38l12.23-11.45-.34-.36a38.31,38.31,0,0,0-53.49-2.25A36.9,36.9,0,0,0,115,89l.73-.68a35.9,35.9,0,0,1,2.22-51.28,37.31,37.31,0,0,1,51.75,1.82l-12,11.24h0l-.52.48.68.73.52-.49h0l.18-.17.34-.32Z"/><path class="cls-2" d="M128.79,103.84,114.63,88.66l42.58-38.5,14.16,15.18ZM116.06,88.72l12.79,13.72,41.09-37.16L157.15,51.56Z"/><path class="cls-4" d="M348.76,34.15A49.73,49.73,0,0,0,299.43,34l-.49-.87a50.71,50.71,0,0,1,50.32.12Z"/><path class="cls-7" d="M298.64,121.58A50.51,50.51,0,0,1,299,33.22l.49.88a49.5,49.5,0,0,0-.33,86.61Z"/><path class="cls-7" d="M323.27,128a50.49,50.49,0,0,1-24.63-6.45l.49-.87a49.25,49.25,0,0,0,48,.17l.48.88A50.39,50.39,0,0,1,323.27,128Z"/><path class="cls-2" d="M298.86,121.7l-.43-.24A50.46,50.46,0,0,1,279,101.79h0a50.58,50.58,0,0,1,19.92-68.54l.44-.24,24.71,45Zm.1-87.33a49.57,49.57,0,0,0-19.08,66.94h0a49.39,49.39,0,0,0,18.61,19L322.93,78Z"/><path class="cls-8" d="M505,94H482A26.54,26.54,0,0,1,455.5,67.49v-14A26.54,26.54,0,0,1,482,27h23A26.54,26.54,0,0,1,531.5,53.51v14A26.54,26.54,0,0,1,505,94ZM482,28A25.55,25.55,0,0,0,456.5,53.51v14A25.55,25.55,0,0,0,482,93h23A25.55,25.55,0,0,0,530.5,67.49v-14A25.55,25.55,0,0,0,505,28Z"/><path class="cls-9" d="M505,128H482a26.54,26.54,0,0,1-26.51-26.51v-14A26.54,26.54,0,0,1,482,61h23A26.54,26.54,0,0,1,531.5,87.51v14A26.54,26.54,0,0,1,505,128ZM482,62A25.55,25.55,0,0,0,456.5,87.51v14A25.55,25.55,0,0,0,482,127h23a25.55,25.55,0,0,0,25.51-25.51v-14A25.55,25.55,0,0,0,505,62Z"/><path class="cls-2" d="M505,111H482A26.54,26.54,0,0,1,455.5,84.49v-14A26.54,26.54,0,0,1,482,44h23A26.54,26.54,0,0,1,531.5,70.51v14A26.54,26.54,0,0,1,505,111ZM482,45A25.55,25.55,0,0,0,456.5,70.51v14A25.55,25.55,0,0,0,482,110h23A25.55,25.55,0,0,0,530.5,84.49v-14A25.55,25.55,0,0,0,505,45Z"/><path class="cls-2" d="M596.5,128h-39V27h39Zm-38-1h37V28h-37Z"/><path class="cls-6" d="M596.5,128H568.92l27.58-27.58Zm-25.16-1H595.5V102.84Z"/><path class="cls-5" d="M557.5,75.58V27h39v9.58Zm1-47.58V73.16l37-37V28Z"/><path class="cls-9" d="M658.5,128c-21,0-38-16.82-38-37.5h1c0,20.13,16.6,36.5,37,36.5s37-16.37,37-36.5h1C696.5,111.18,679.45,128,658.5,128Z"/><path class="cls-8" d="M670,78H647c-14.62,0-26.51-9.07-26.51-20.21V47.21C620.5,36.07,632.39,27,647,27h23c14.62,0,26.51,9.07,26.51,20.21V57.79C696.5,68.93,684.61,78,670,78ZM647,28C633,28,621.5,36.62,621.5,47.21V57.79C621.5,68.38,633,77,647,77h23c14.06,0,25.51-8.62,25.51-19.21V47.21C695.5,36.62,684.05,28,670,28Z"/><path class="cls-2" d="M665.5,127.86V27H670c14.62,0,26.51,9.07,26.51,20.21V90.5a38.11,38.11,0,0,1-30.4,37.24Zm1-99.86v98.63a37.1,37.1,0,0,0,29-36.13V47.21C695.5,36.62,684.05,28,670,28Z"/></g></svg>