<svg id="圖層_1" data-name="圖層 1" xmlns="http://www.w3.org/2000/svg" viewBox="0 0 360 145"><defs><style>.cls-1{fill:#ffc800;}.cls-2{fill:#ff4981;}.cls-3{fill:#67696a;}.cls-4{fill:#0089b8;}.cls-5{fill:#00a580;}</style></defs><title>jsdc工作區域 1 複本</title><rect class="cls-1" x="186" y="23" width="25" height="100"/><path class="cls-2" d="M211,123a50,50,0,0,0,0-100"/><path class="cls-3" d="M211,98a25,25,0,0,0,0-50"/><rect class="cls-1" x="61" y="23" width="30" height="100"/><path class="cls-2" d="M16,86c0,20.43,16.79,37,37.5,37S91,106.43,91,86"/><path class="cls-3" d="M61,122.75A37.52,37.52,0,0,0,91,86H61Z"/><path class="cls-4" d="M294,115.82a50,50,0,1,1,50-86.6"/><path class="cls-5" d="M342.33,116.82a50,50,0,0,1-48.12-87.66"/><path class="cls-3" d="M274.44,97.05a49.77,49.77,0,0,0,19.24,19.47l24.82-43L294.16,29.19A50,50,0,0,0,274.44,97.05Z"/><polygon class="cls-3" points="166.16 61.31 124.32 99.14 110.84 84.69 152.68 46.86 166.16 61.31"/><path class="cls-5" d="M165.89,34.91a37.78,37.78,0,0,0-52.8-2.22,36.42,36.42,0,0,0-2.25,52"/><path class="cls-4" d="M166.16,61.31a36.42,36.42,0,0,1-2.25,52,37.78,37.78,0,0,1-52.8-2.22"/></svg>