<svg xmlns="http://www.w3.org/2000/svg" viewBox="0 0 720 150"><defs><style>.cls-1{fill:#ffc800;}.cls-2{fill:#ff4981;}.cls-3{fill:#67696a;}.cls-4{fill:#f3dc1d;}.cls-5{fill:#0099b4;}.cls-6{fill:#de3f37;}.cls-7{fill:#b2cc39;}.cls-8{fill:#00a580;}.cls-9{fill:#0089b8;}</style></defs><title>jsdc工作區域 1</title><g id="圖層_1" data-name="圖層 1"><rect class="cls-1" x="190" y="27.5" width="25" height="100"/><path class="cls-2" d="M215,127.5a50,50,0,0,0,0-100"/><path class="cls-3" d="M215,102.5a25,25,0,0,0,0-50"/><rect class="cls-4" x="455" y="27.5" width="75" height="66" rx="26.01" ry="26.01"/><rect class="cls-5" x="455" y="61.5" width="75" height="66" rx="26.01" ry="26.01"/><rect class="cls-3" x="455" y="44.5" width="75" height="66" rx="26.01" ry="26.01"/><rect class="cls-3" x="557" y="27.5" width="38" height="100"/><polygon class="cls-6" points="595 127.5 595 101.63 569.13 127.5 595 127.5"/><polygon class="cls-7" points="557 74.37 595 36.37 595 27.5 557 27.5 557 74.37"/><polygon class="cls-3" points="170.16 65.81 128.32 103.64 114.84 89.19 156.68 51.36 170.16 65.81"/><path class="cls-8" d="M169.89,39.41a37.78,37.78,0,0,0-52.8-2.22,36.42,36.42,0,0,0-2.25,52"/><path class="cls-9" d="M170.16,65.81a36.42,36.42,0,0,1-2.25,52,37.78,37.78,0,0,1-52.8-2.22"/><path class="cls-7" d="M362.25,65A37.38,37.38,0,1,1,437,65"/><path class="cls-3" d="M399.5,27.5a37.5,37.5,0,0,1,0,75"/><rect class="cls-6" x="362" y="102.5" width="75" height="25"/></g><g id="圖層_3" data-name="圖層 3"><rect class="cls-1" x="65" y="27.5" width="30" height="100"/><path class="cls-2" d="M20,90.5c0,20.43,16.79,37,37.5,37S95,110.93,95,90.5"/><path class="cls-3" d="M65,126.76A37.14,37.14,0,0,0,95,90.5H65Z"/><path class="cls-9" d="M298,120.32a50,50,0,1,1,50-86.6"/><path class="cls-8" d="M346.33,121.32a50,50,0,0,1-48.12-87.66"/><path class="cls-3" d="M322.5,77.9,298.21,33.66l0,0h0c-.63.35-1.24.71-1.85,1.08s-1,.63-1.5,1l-.12.07,0,0a50,50,0,0,0,3,85.2Z"/><path class="cls-5" d="M620,90.5c0,20.43,16.79,37,37.5,37s37.5-16.57,37.5-37"/><path class="cls-4" d="M669,27.5H646c-14.3,0-26,8.87-26,19.71V57.79c0,10.84,11.71,19.71,26,19.71h23c14.3,0,26-8.87,26-19.71V47.21C695,36.37,683.29,27.5,669,27.5Z"/><path class="cls-3" d="M669,27.5h-4v99.26a37.22,37.22,0,0,0,29.79-32.37,1,1,0,0,0,0-.16c.05-.52.09-1,.12-1.55,0-.12,0-.23,0-.35,0-.6,0-1.21,0-1.83h0c0-.16,0-.31,0-.47v-43C695,36.3,683.29,27.5,669,27.5Z"/></g></svg>